# xmcd
#
# Track frame offsets:
#	150
#	13175
#	27800
#	41675
#	55875
#	74325
#	83400
#	102525
#	118350
#	135200
#	143025
#	162650
#
# Disc length: 2377 seconds
#
# Revision: 0
# Processed by: cddbd v1.5.1PL2 Copyright (c) Steve Scherf et al.
# Submitted via: dBpowerAMP V4.0
#
DISCID=a309470c
DTITLE=B-J Baartmans - The Pawnshop Guitar Chase
DYEAR=1998
DGENRE=Blues
TTITLE0=likeable and cute (but so empty)
TTITLE1=fly me away
TTITLE2=the pawnshop guitar chase
TTITLE3=for the love of you
TTITLE4=kawai mambo
TTITLE5=an early morning
TTITLE6=a strange affair
TTITLE7=cry
TTITLE8=pool of love
TTITLE9=open skies
TTITLE10=the real me
TTITLE11=a silent move
EXTD=
EXTT0=
EXTT1=
EXTT2=
EXTT3=
EXTT4=
EXTT5=
EXTT6=
EXTT7=
EXTT8=
EXTT9=
EXTT10=
EXTT11=
PLAYORDER=
